<?xml version="1.0" encoding="UTF-8"?>
<svg xmlns="http://www.w3.org/2000/svg" viewBox="0 0 178.47 178.47">
  <defs>
    <style>
      .lm-1 { fill: #ffde8c; }
      .lm-2 { fill: #230500; }
      .lm-3 { fill: none; stroke: #230500; stroke-miterlimit: 10; }
      .lm-4 { fill: #e74a2d; }
      .lm-5 { fill: #fff6cf; }
      .lm-6 { fill: #ffc465; }
      .lm-7 { fill: #ff8e3f; }
    </style>
  </defs>
  <g>
    <rect class="lm-2" x="40.56" y="40.56" width="8.11" height="8.11" rx="1.34" ry="1.34"/>
    <rect class="lm-2" x="40.56" y="129.79" width="8.11" height="8.11" rx="1.34" ry="1.34"/>
    <rect class="lm-2" x="129.8" y="129.79" width="8.11" height="8.11" rx="1.34" ry="1.34"/>
    <rect class="lm-2" x="129.8" y="40.56" width="8.11" height="8.11" rx="1.34" ry="1.34"/>
    <path class="lm-4" d="M121.69,73.01v-8.12h-8.12v-8.11h-8.11v-8.11h-32.45v8.11h-8.11v8.11h-8.11v8.12h-8.12v32.45h8.12v8.11h8.11v8.11h8.11v8.11h32.45v-8.11h8.11v-8.11h8.12v-8.11h8.11v-32.45h-8.11ZM121.69,89.23v8.11h-8.12v8.12h-8.11v8.11h-8.11v8.11h-16.23v-8.11h-8.11v-8.11h-8.11v-8.12h-8.11v-16.22h8.11v-8.11h8.11v-8.12h8.11v-8.11h16.23v8.11h8.11v8.12h8.11v8.11h8.12v8.11Z"/>
    <g>
      <rect class="lm-7" x="97.35" y="64.89" width="8.11" height="8.12"/>
      <polygon class="lm-7" points="97.35 64.89 97.35 56.78 89.24 56.78 81.12 56.78 81.12 64.89 89.24 64.89 97.35 64.89"/>
      <rect class="lm-7" x="73.01" y="64.89" width="8.11" height="8.12"/>
      <rect class="lm-7" x="64.9" y="73.01" width="8.11" height="8.11"/>
      <polygon class="lm-7" points="64.9 81.12 56.79 81.12 56.79 89.23 56.79 97.34 64.9 97.34 64.9 89.23 64.9 81.12"/>
      <rect class="lm-7" x="64.9" y="97.34" width="8.11" height="8.12"/>
      <rect class="lm-7" x="73.01" y="105.46" width="8.11" height="8.11"/>
      <polygon class="lm-7" points="81.12 113.57 81.12 121.68 89.24 121.68 97.35 121.68 97.35 113.57 89.24 113.57 81.12 113.57"/>
      <rect class="lm-7" x="97.35" y="105.46" width="8.11" height="8.11"/>
      <rect class="lm-7" x="105.46" y="97.34" width="8.11" height="8.12"/>
      <polygon class="lm-7" points="113.57 81.12 113.57 89.23 113.57 97.34 121.69 97.34 121.69 89.23 121.69 81.12 113.57 81.12"/>
      <rect class="lm-7" x="105.46" y="73.01" width="8.11" height="8.11"/>
    </g>
    <g>
      <polygon class="lm-6" points="97.35 73.01 97.35 64.89 89.24 64.89 81.12 64.89 81.12 73.01 89.24 73.01 97.35 73.01"/>
      <rect class="lm-6" x="73.01" y="73.01" width="8.11" height="8.11"/>
      <polygon class="lm-6" points="73.01 81.12 64.9 81.12 64.9 89.23 64.9 97.34 73.01 97.34 73.01 89.23 73.01 81.12"/>
      <rect class="lm-6" x="73.01" y="97.34" width="8.11" height="8.12"/>
      <polygon class="lm-6" points="81.12 105.46 81.12 113.57 89.24 113.57 97.35 113.57 97.35 105.46 89.24 105.46 81.12 105.46"/>
      <rect class="lm-6" x="97.35" y="97.34" width="8.11" height="8.12"/>
      <polygon class="lm-6" points="105.46 81.12 105.46 89.23 105.46 97.34 113.57 97.34 113.57 89.23 113.57 81.12 105.46 81.12"/>
      <rect class="lm-6" x="97.35" y="73.01" width="8.11" height="8.11"/>
    </g>
    <g>
      <polygon class="lm-1" points="97.35 81.12 97.35 73.01 89.24 73.01 81.12 73.01 81.12 81.12 89.24 81.12 97.35 81.12"/>
      <polygon class="lm-1" points="81.12 81.12 73.01 81.12 73.01 89.23 73.01 97.34 81.12 97.34 81.12 89.23 81.12 81.12"/>
      <polygon class="lm-1" points="81.12 97.34 81.12 105.46 89.24 105.46 97.35 105.46 97.35 97.34 89.24 97.34 81.12 97.34"/>
      <polygon class="lm-1" points="97.35 81.12 97.35 89.23 97.35 97.34 105.46 97.34 105.46 89.23 105.46 81.12 97.35 81.12"/>
    </g>
    <polygon class="lm-5" points="89.24 81.12 81.12 81.12 81.12 89.23 81.12 97.34 89.24 97.34 97.35 97.34 97.35 89.23 97.35 81.12 89.24 81.12"/>
  </g>
  <polyline class="lm-3" points="89.24 0 89.24 48.67 105.46 48.67 105.46 56.79 113.57 56.79 121.68 48.67"/>
  <polyline class="lm-3" points="97.35 48.67 97.35 40.56 105.46 40.56 105.46 32.45 113.57 32.45 113.57 24.34 121.68 24.34"/>
  <polyline class="lm-3" points="113.57 16.22 105.46 16.22 105.46 24.34 97.35 24.34 97.35 32.45 89.24 32.45"/>
  <polyline class="lm-3" points="97.35 8.11 97.35 16.22 89.24 16.22"/>
  <polyline class="lm-3" points="178.47 89.24 129.8 89.24 129.8 73.01 121.68 73.01 121.68 64.9 129.8 56.79"/>
  <polyline class="lm-3" points="129.8 81.12 137.91 81.12 137.91 73.01 146.02 73.01 146.02 64.9 154.13 64.9 154.13 56.79"/>
  <polyline class="lm-3" points="162.25 64.9 162.25 73.01 154.13 73.01 154.13 81.12 146.02 81.12 146.02 89.24"/>
  <polyline class="lm-3" points="162.25 89.24 162.25 81.12 170.36 81.12 170.36 73.01"/>
  <line class="lm-3" x1="113.57" y1="64.9" x2="113.57" y2="56.79"/>
  <line class="lm-3" x1="121.68" y1="64.9" x2="113.57" y2="64.9"/>
  <polyline class="lm-3" points="89.24 178.47 89.24 129.8 105.46 129.8 105.46 121.68 113.57 121.68 121.68 129.8"/>
  <polyline class="lm-3" points="97.35 129.8 97.35 137.91 105.46 137.91 105.46 146.02 113.57 146.02 113.57 154.13 121.68 154.13"/>
  <polyline class="lm-3" points="113.57 162.25 105.46 162.25 105.46 154.13 97.35 154.13 97.35 146.02 89.24 146.02"/>
  <polyline class="lm-3" points="97.35 170.36 97.35 162.25 89.24 162.25"/>
  <polyline class="lm-3" points="178.47 89.24 129.8 89.24 129.8 105.46 121.68 105.46 121.68 113.57 129.8 121.68"/>
  <polyline class="lm-3" points="129.8 97.35 137.91 97.35 137.91 105.46 146.02 105.46 146.02 113.57 154.13 113.57 154.13 121.68"/>
  <polyline class="lm-3" points="162.25 113.57 162.25 105.46 154.13 105.46 154.13 97.35 146.02 97.35 146.02 89.24"/>
  <polyline class="lm-3" points="162.25 89.24 162.25 97.35 170.36 97.35 170.36 105.46"/>
  <line class="lm-3" x1="113.57" y1="113.57" x2="113.57" y2="121.68"/>
  <line class="lm-3" x1="121.68" y1="113.57" x2="113.57" y2="113.57"/>
  <polyline class="lm-3" points="89.24 178.47 89.24 129.8 73.01 129.8 73.01 121.68 64.9 121.68 56.79 129.8"/>
  <polyline class="lm-3" points="81.12 129.8 81.12 137.91 73.01 137.91 73.01 146.02 64.9 146.02 64.9 154.13 56.79 154.13"/>
  <polyline class="lm-3" points="64.9 162.25 73.01 162.25 73.01 154.13 81.12 154.13 81.12 146.02 89.24 146.02"/>
  <polyline class="lm-3" points="81.12 170.36 81.12 162.25 89.24 162.25"/>
  <polyline class="lm-3" points="0 89.24 48.67 89.24 48.67 105.46 56.79 105.46 56.79 113.57 48.67 121.68"/>
  <polyline class="lm-3" points="48.67 97.35 40.56 97.35 40.56 105.46 32.45 105.46 32.45 113.57 24.34 113.57 24.34 121.68"/>
  <polyline class="lm-3" points="16.22 113.57 16.22 105.46 24.34 105.46 24.34 97.35 32.45 97.35 32.45 89.24"/>
  <polyline class="lm-3" points="16.22 89.24 16.22 97.35 8.11 97.35 8.11 105.46"/>
  <line class="lm-3" x1="64.9" y1="113.57" x2="64.9" y2="121.68"/>
  <line class="lm-3" x1="56.79" y1="113.57" x2="64.9" y2="113.57"/>
  <polyline class="lm-3" points="89.24 0 89.24 48.67 73.01 48.67 73.01 56.79 64.9 56.79 56.79 48.67"/>
  <polyline class="lm-3" points="81.12 48.67 81.12 40.56 73.01 40.56 73.01 32.45 64.9 32.45 64.9 24.34 56.79 24.34"/>
  <polyline class="lm-3" points="64.9 16.22 73.01 16.22 73.01 24.34 81.12 24.34 81.12 32.45 89.24 32.45"/>
  <polyline class="lm-3" points="81.12 8.11 81.12 16.22 89.24 16.22"/>
  <polyline class="lm-3" points="0 89.24 48.67 89.24 48.67 73.01 56.79 73.01 56.79 64.9 48.67 56.79"/>
  <polyline class="lm-3" points="48.67 81.12 40.56 81.12 40.56 73.01 32.45 73.01 32.45 64.9 24.34 64.9 24.34 56.79"/>
  <polyline class="lm-3" points="16.22 64.9 16.22 73.01 24.34 73.01 24.34 81.12 32.45 81.12 32.45 89.24"/>
  <polyline class="lm-3" points="16.22 89.24 16.22 81.12 8.11 81.12 8.11 73.01"/>
  <line class="lm-3" x1="64.9" y1="64.9" x2="64.9" y2="56.79"/>
  <line class="lm-3" x1="56.79" y1="64.9" x2="64.9" y2="64.9"/>
</svg>
